<?xml version="1.0" standalone="no"?>
<!DOCTYPE svg PUBLIC "-//W3C//DTD SVG 20010904//EN"
 "http://www.w3.org/TR/2001/REC-SVG-20010904/DTD/svg10.dtd">
<svg version="1.0" xmlns="http://www.w3.org/2000/svg"
 width="270.000000pt" height="270.000000pt" viewBox="0 0 270.000000 270.000000"
 preserveAspectRatio="xMidYMid meet">
<metadata>
Created by potrace 1.11, written by Peter Selinger 2001-2013
</metadata>
<g transform="translate(0.000000,270.000000) scale(0.100000,-0.100000)"
fill="#000000" stroke="none">
<path d="M1241 2128 c-5 -13 -84 -251 -176 -530 -92 -280 -172 -508 -178 -508
-22 0 -507 205 -504 213 1 4 142 66 312 136 l310 128 3 127 c1 69 1 126 -2
126 -4 0 -199 -81 -253 -106 -28 -13 -340 -145 -636 -271 l-107 -45 0 -97 0
-96 397 -169 c219 -93 401 -172 405 -175 5 -4 -15 -74 -42 -156 -27 -82 -46
-151 -41 -155 16 -9 301 -4 310 6 5 5 119 347 255 759 136 413 253 765 261
783 8 18 15 37 15 42 0 6 -64 10 -160 10 -157 0 -161 0 -169 -22z"/>
<path d="M1717 2143 c-2 -5 -107 -318 -232 -698 -125 -379 -242 -735 -260
-790 -19 -55 -32 -102 -29 -104 10 -10 297 -6 309 4 7 6 84 224 170 486 l158
476 156 -64 c407 -168 370 -150 336 -163 -32 -12 -420 -173 -470 -195 -16 -7
-56 -23 -87 -36 l-58 -23 0 -128 0 -128 33 13 c138 59 379 162 412 177 22 9
81 34 130 55 50 20 108 45 130 55 22 10 95 41 163 70 l123 53 -3 99 -3 100
-285 122 c-157 67 -333 142 -392 166 -59 25 -108 50 -108 55 0 6 29 98 65 205
36 107 65 196 65 197 0 7 -319 2 -323 -4z"/>
</g>
</svg>
